<?xml version="1.0" encoding="UTF-8"?>
<svg xmlns="http://www.w3.org/2000/svg" xmlns:xlink="http://www.w3.org/1999/xlink" width="326.5pt" height="161.5pt" viewBox="0 0 326.5 161.5" version="1.1">
<g id="surface1">
<path style=" stroke:none;fill-rule:nonzero;fill:rgb(100%,100%,100%);fill-opacity:1;" d="M 163.875 158 C 135.648438 158 109.675781 142.605469 96.089844 117.816406 L 95.09375 116 L 3.5 116 L 3.5 44.5 L 95.632813 44.5 L 96.640625 42.726563 C 110.355469 18.53125 136.117188 3.5 163.875 3.5 C 191.632813 3.5 217.394531 18.53125 231.109375 42.726563 L 232.113281 44.5 L 323 44.5 L 323 116 L 232.65625 116 L 231.660156 117.816406 C 218.074219 142.605469 192.101563 158 163.875 158 "/>
<path style=" stroke:none;fill-rule:nonzero;fill:rgb(92.96875%,10.984802%,14.109802%);fill-opacity:1;" d="M 163.875 0 C 133.734375 0 107.46875 16.527344 93.59375 41 L 0 41 L 0 119.5 L 93.019531 119.5 C 106.738281 144.527344 133.320313 161.5 163.875 161.5 C 194.429688 161.5 221.011719 144.527344 234.730469 119.5 L 326.5 119.5 L 326.5 41 L 234.152344 41 C 220.28125 16.527344 194.015625 0 163.875 0 M 163.875 7 C 190.375 7 214.972656 21.351563 228.0625 44.453125 L 230.074219 48 L 319.5 48 L 319.5 112.5 L 230.585938 112.5 L 228.589844 116.136719 C 215.621094 139.800781 190.824219 154.5 163.875 154.5 C 136.925781 154.5 112.128906 139.800781 99.160156 116.136719 L 97.167969 112.5 L 7 112.5 L 7 48 L 97.671875 48 L 99.683594 44.453125 C 112.777344 21.351563 137.375 7 163.875 7 "/>
<path style=" stroke:none;fill-rule:nonzero;fill:rgb(0%,65.039063%,31.762695%);fill-opacity:1;" d="M 213.289063 80.644531 C 213.289063 107.800781 191.273438 129.820313 164.113281 129.820313 C 136.953125 129.820313 114.9375 107.800781 114.9375 80.644531 C 114.9375 53.484375 136.953125 31.46875 164.113281 31.46875 C 191.273438 31.46875 213.289063 53.484375 213.289063 80.644531 "/>
<path style=" stroke:none;fill-rule:nonzero;fill:rgb(100%,100%,100%);fill-opacity:1;" d="M 15.5 104.25 L 310.75 104.25 L 310.75 56.769531 L 15.5 56.769531 Z M 15.5 104.25 "/>
<path style=" stroke:none;fill-rule:nonzero;fill:rgb(0%,65.039063%,31.762695%);fill-opacity:1;" d="M 313.25 54.269531 L 13 54.269531 L 13 106.75 L 313.25 106.75 Z M 308.25 101.75 L 18 101.75 L 18 59.269531 L 308.25 59.269531 Z M 308.25 101.75 "/>
<path style=" stroke:none;fill-rule:nonzero;fill:rgb(92.96875%,10.984802%,14.109802%);fill-opacity:1;" d="M 283.953125 89.8125 L 283.953125 33.394531 L 273.9375 33.394531 L 273.9375 96.039063 L 300.125 96.039063 L 300.125 89.8125 "/>
<path style=" stroke:none;fill-rule:nonzero;fill:rgb(92.96875%,10.984802%,14.109802%);fill-opacity:1;" d="M 246.722656 84.375 L 251.5 72.722656 L 256.277344 84.375 Z M 261.058594 96.039063 L 269.308594 96.039063 L 256.941406 65.875 L 246.058594 65.875 L 233.691406 96.039063 L 241.941406 96.039063 L 244.570313 89.625 L 258.429688 89.625 "/>
<path style=" stroke:none;fill-rule:nonzero;fill:rgb(92.96875%,10.984802%,14.109802%);fill-opacity:1;" d="M 219.804688 66.328125 L 219.804688 83.34375 L 207.699219 66.328125 L 196.601563 66.328125 L 196.601563 96.039063 L 204.960938 96.039063 L 204.960938 74.957031 L 219.804688 96.039063 L 228.164063 96.039063 L 228.164063 66.328125 "/>
<path style=" stroke:none;fill-rule:nonzero;fill:rgb(92.96875%,10.984802%,14.109802%);fill-opacity:1;" d="M 180.621094 96.039063 L 187.84375 96.039063 L 187.84375 66.328125 L 180.621094 66.328125 Z M 180.621094 96.039063 "/>
<path style=" stroke:none;fill-rule:nonzero;fill:rgb(92.96875%,10.984802%,14.109802%);fill-opacity:1;" d="M 173.46875 66.328125 L 150.261719 66.328125 L 150.261719 71.746094 L 157.484375 71.746094 L 157.484375 96.039063 L 166.3125 96.039063 L 166.3125 71.746094 L 173.46875 71.746094 "/>
<path style=" stroke:none;fill-rule:nonzero;fill:rgb(92.96875%,10.984802%,14.109802%);fill-opacity:1;" d="M 129.5 89.265625 C 124.609375 89.265625 120.640625 85.65625 120.640625 81.207031 C 120.640625 76.757813 124.609375 73.148438 129.5 73.148438 C 134.394531 73.148438 138.359375 76.757813 138.359375 81.207031 C 138.359375 85.65625 134.394531 89.265625 129.5 89.265625 M 129.5 65.191406 C 119.777344 65.191406 111.890625 72.363281 111.890625 81.207031 C 111.890625 90.050781 119.777344 97.222656 129.5 97.222656 C 139.226563 97.222656 147.109375 90.050781 147.109375 81.207031 C 147.109375 72.363281 139.226563 65.191406 129.5 65.191406 "/>
<path style=" stroke:none;fill-rule:nonzero;fill:rgb(92.96875%,10.984802%,14.109802%);fill-opacity:1;" d="M 91.890625 80.101563 L 86.605469 80.101563 L 86.605469 71.746094 L 92.15625 71.746094 C 92.15625 71.746094 97.707031 71.277344 97.707031 75.925781 C 97.707031 80.574219 91.890625 80.101563 91.890625 80.101563 M 100.148438 83.378906 C 100.148438 83.378906 107 80.773438 107 75.355469 C 107 75.355469 106.972656 66.703125 97.839844 66.359375 L 97.839844 66.328125 L 78.449219 66.328125 L 78.449219 96.039063 L 86.539063 96.039063 L 86.539063 84.917969 L 91.671875 84.917969 L 97.839844 96.039063 L 109.140625 96.039063 "/>
<path style=" stroke:none;fill-rule:nonzero;fill:rgb(92.96875%,10.984802%,14.109802%);fill-opacity:1;" d="M 55.476563 88.730469 L 48.085938 88.730469 L 48.085938 72.414063 L 55.777344 72.414063 C 55.777344 72.414063 62.863281 72.910156 62.863281 79.75 C 62.863281 86.589844 59.121094 88.730469 55.476563 88.730469 M 57.582031 66.328125 L 35.519531 66.328125 L 35.519531 71.746094 L 38.925781 71.746094 L 38.925781 127.710938 L 48.023438 127.710938 L 48.023438 96.039063 L 57.648438 96.039063 C 57.648438 96.039063 70.890625 95.082031 70.890625 81.207031 C 70.890625 67.332031 57.582031 66.328125 57.582031 66.328125 "/>
</g>
</svg>
